<svg width="980" height="320" viewBox="0 0 980 320" fill="none" xmlns="http://www.w3.org/2000/svg" role="img" aria-labelledby="prajaLogoTitle prajaLogoDesc">
  <title id="prajaLogoTitle">PRAJA Official Style Logo</title>
  <desc id="prajaLogoDesc">Official-style circular seal logo for PRAJA with tricolor ring and Ashoka Chakra-inspired center.</desc>

  <defs>
    <linearGradient id="tricolor" x1="38" y1="22" x2="282" y2="266" gradientUnits="userSpaceOnUse">
      <stop offset="0" stop-color="#FF9933"/>
      <stop offset="0.5" stop-color="#FFFFFF"/>
      <stop offset="1" stop-color="#138808"/>
    </linearGradient>
    <linearGradient id="nameBar" x1="356" y1="220" x2="770" y2="220" gradientUnits="userSpaceOnUse">
      <stop offset="0" stop-color="#FF9933"/>
      <stop offset="1" stop-color="#138808"/>
    </linearGradient>
  </defs>

  <g transform="translate(20 20)">
    <circle cx="140" cy="140" r="122" fill="#F7F9FC" stroke="url(#tricolor)" stroke-width="14"/>
    <circle cx="140" cy="140" r="98" fill="#FFFFFF" stroke="#D5DDE8" stroke-width="2.5"/>

    <circle cx="140" cy="140" r="33" fill="none" stroke="#1A4B8C" stroke-width="3"/>
    <circle cx="140" cy="140" r="5" fill="#1A4B8C"/>
    <line x1="140" y1="107" x2="140" y2="173" stroke="#1A4B8C" stroke-width="2"/>
    <line x1="107" y1="140" x2="173" y2="140" stroke="#1A4B8C" stroke-width="2"/>
    <line x1="116.7" y1="116.7" x2="163.3" y2="163.3" stroke="#1A4B8C" stroke-width="2"/>
    <line x1="116.7" y1="163.3" x2="163.3" y2="116.7" stroke="#1A4B8C" stroke-width="2"/>
    <line x1="123" y1="109" x2="157" y2="171" stroke="#1A4B8C" stroke-width="1.6"/>
    <line x1="157" y1="109" x2="123" y2="171" stroke="#1A4B8C" stroke-width="1.6"/>

    <path d="M84 180C92 168 102 158 116 154" stroke="#1F6A2C" stroke-width="4" stroke-linecap="round"/>
    <path d="M196 180C188 168 178 158 164 154" stroke="#1F6A2C" stroke-width="4" stroke-linecap="round"/>

    <text x="140" y="74" text-anchor="middle" fill="#20324D" font-family="Georgia, Times New Roman, serif" font-size="15" font-weight="700" letter-spacing="1.2">PRAJA</text>
    <text x="140" y="216" text-anchor="middle" fill="#4A5F7A" font-family="Georgia, Times New Roman, serif" font-size="11" font-weight="700" letter-spacing="1">PUBLIC RESPONSE AND</text>
    <text x="140" y="232" text-anchor="middle" fill="#4A5F7A" font-family="Georgia, Times New Roman, serif" font-size="11" font-weight="700" letter-spacing="1">JURISDICTION ASSIST</text>
  </g>

  <g transform="translate(356 0)">
    <text x="0" y="138" fill="#20324D" font-family="Georgia, Times New Roman, serif" font-size="90" font-weight="700" letter-spacing="5">PRAJA</text>
    <text x="2" y="180" fill="#4A5F7A" font-family="Georgia, Times New Roman, serif" font-size="24" font-weight="700" letter-spacing="3">CITIZEN GRIEVANCE AND GOVERNANCE PORTAL</text>
    <rect x="0" y="205" width="540" height="8" rx="4" fill="url(#nameBar)"/>
    <text x="0" y="242" fill="#6E819C" font-family="Georgia, Times New Roman, serif" font-size="17" font-weight="600" letter-spacing="2">DIGITAL PUBLIC SERVICE INTELLIGENCE</text>
  </g>
</svg>
